# xmcd
#
# Track frame offsets:
#	150
#	22489
#	36697
#
# Disc length: 743 seconds
#
# Revision: 0
# Processed by: cddbd v1.5.1PL0 Copyright (c) Steve Scherf et al.
# Submitted via: EasyCDDAExtractor 4.6.9.1
#
DISCID=2b02e503
DTITLE=Crosscut Saw - Live At The Attic Leeds
DYEAR=2002
DGENRE=Blues
TTITLE0=24-7
TTITLE1=On My Knees
TTITLE2=Easy Baby
EXTD=
EXTT0=
EXTT1=
EXTT2=
PLAYORDER=
